<svg xmlns="http://www.w3.org/2000/svg" 
    xmlns:xlink="http://www.w3.org/1999/xlink" viewBox="0 0 100 125" version="1.1" x="0px" y="0px">
    <title>Delete 1.5</title>
    <desc>Created with Sketch.</desc>
    <g stroke="none" stroke-width="1" fill="none" fill-rule="evenodd">
        <g fill-rule="nonzero" fill="#000000">
            <path d="M69.5030342,35.8542931 L67.6692577,79.8649294 C67.6555616,80.1936374 67.3354513,80.5 66.9940966,80.5 L34.0059034,80.5 C33.6711781,80.5 33.3441573,80.1868912 33.3307423,79.8649294 L31.4969658,35.8542931 C31.4164941,33.9229722 29.785614,32.4225625 27.8542931,32.5030342 C25.9229722,32.5835059 24.4225625,34.214386 24.5030342,36.1457069 L26.3368108,80.1563432 C26.5065672,84.2304977 29.921339,87.5 34.0059034,87.5 L66.9940966,87.5 C71.0846391,87.5 74.4931245,84.2378978 74.6631892,80.1563432 L76.4969658,36.1457069 C76.5774375,34.214386 75.0770278,32.5835059 73.1457069,32.5030342 C71.214386,32.4225625 69.5835059,33.9229722 69.5030342,35.8542931 Z"/>
            <path d="M48,39 L48,73 C48,74.3807119 49.1192881,75.5 50.5,75.5 C51.8807119,75.5 53,74.3807119 53,73 L53,39 C53,37.6192881 51.8807119,36.5 50.5,36.5 C49.1192881,36.5 48,37.6192881 48,39 Z"/>
            <path d="M36.5010806,39.0734976 L37.5010806,73.0734976 C37.5416722,74.4536127 38.6933826,75.539511 40.0734976,75.4989194 C41.4536127,75.4583278 42.539511,74.3066174 42.4989194,72.9265024 L41.4989194,38.9265024 C41.4583278,37.5463873 40.3066174,36.460489 38.9265024,36.5010806 C37.5463873,36.5416722 36.460489,37.6933826 36.5010806,39.0734976 Z"/>
            <path d="M59.5010806,38.9265024 L58.5010806,72.9265024 C58.460489,74.3066174 59.5463873,75.4583278 60.9265024,75.4989194 C62.3066174,75.539511 63.4583278,74.4536127 63.4989194,73.0734976 L64.4989194,39.0734976 C64.539511,37.6933826 63.4536127,36.5416722 62.0734976,36.5010806 C60.6933826,36.460489 59.5416722,37.5463873 59.5010806,38.9265024 Z"/>
            <path d="M25,29 L75,29 C76.9329966,29 78.5,27.4329966 78.5,25.5 C78.5,23.5670034 76.9329966,22 75,22 L25,22 C23.0670034,22 21.5,23.5670034 21.5,25.5 C21.5,27.4329966 23.0670034,29 25,29 Z"/>
            <path d="M43.3954988,23.8488747 L44.4247919,19.7317021 C44.5716219,19.1443819 45.3958769,18.5 45.9962027,18.5 L54.0037973,18.5 C54.6050882,18.5 55.4280623,19.143119 55.5752081,19.7317021 L56.6045012,23.8488747 L63.3954988,22.1511253 L62.3662056,18.0339527 C61.4403133,14.3303835 57.8183825,11.5 54.0037973,11.5 L45.9962027,11.5 C42.1820122,11.5 38.559233,14.3321983 37.6337944,18.0339527 L36.6045012,22.1511253 L43.3954988,23.8488747 Z"/>
        </g>
    </g>
</svg>
